# xmcd CD database file
#
# Track frame offsets:
#	150
#	9698
#	21979
#	32628
#	43774
#	56154
#	69429
#	82499
#	97124
#	110638
#
# Disc length: 1652 seconds
#
# Revision: 0
# Processed by: cddbd v1.5.1PL2 Copyright (c) Steve Scherf et al.
# Submitted via: CDex 1.51
#
DISCID=8f06720a
DTITLE=Johnny Paycheck - Tribute To George Jones
DYEAR=2002
DGENRE=Country
TTITLE0=The Race Is On
TTITLE1=She Thinks I Still Care
TTITLE2=Walk Through This World With Me
TTITLE3=Tender Years
TTITLE4=White Lightning
TTITLE5=Take Me
TTITLE6=When The Grass Grows Over Me
TTITLE7=A Good Year For The Roses
TTITLE8=She's Mine
TTITLE9=Things Have Gone To Pieces
EXTD=YEAR: 2002
EXTT0=
EXTT1=
EXTT2=
EXTT3=
EXTT4=
EXTT5=
EXTT6=
EXTT7=
EXTT8=
EXTT9=
PLAYORDER=
